<svg width="697" height="697" viewBox="0 0 697 697" fill="none" xmlns="http://www.w3.org/2000/svg">
<path d="M123.609 481.91C91.1786 427.196 79.835 362.526 91.7074 300.041C103.58 237.556 137.851 181.553 188.089 142.545C238.326 103.538 301.074 84.2093 364.552 88.1874C428.031 92.1656 487.874 119.177 532.848 164.151C577.823 209.126 604.834 268.969 608.812 332.448C612.791 395.926 593.462 458.674 554.455 508.911C515.447 559.148 459.444 593.42 396.959 605.293C334.474 617.165 269.804 605.821 215.09 573.391V573.391L124.698 598.984C120.994 600.067 117.068 600.134 113.329 599.178C109.591 598.222 106.179 596.278 103.451 593.549C100.722 590.821 98.7779 587.409 97.8217 583.671C96.8655 579.932 96.9324 576.006 98.0156 572.302L123.609 481.91Z" stroke="#8257E5" stroke-width="20" stroke-linecap="round" stroke-linejoin="round"/>
<path d="M348.5 381.172C366.544 381.172 381.172 366.544 381.172 348.5C381.172 330.456 366.544 315.828 348.5 315.828C330.456 315.828 315.828 330.456 315.828 348.5C315.828 366.544 330.456 381.172 348.5 381.172Z" fill="#8257E5"/>
<path d="M217.812 381.172C235.857 381.172 250.484 366.544 250.484 348.5C250.484 330.456 235.857 315.828 217.812 315.828C199.768 315.828 185.141 330.456 185.141 348.5C185.141 366.544 199.768 381.172 217.812 381.172Z" fill="#8257E5"/>
<path d="M479.188 381.172C497.232 381.172 511.859 366.544 511.859 348.5C511.859 330.456 497.232 315.828 479.188 315.828C461.143 315.828 446.516 330.456 446.516 348.5C446.516 366.544 461.143 381.172 479.188 381.172Z" fill="#8257E5"/>
</svg>
